/* XPM */
static char *b88fc94fb2d74880bd53191d25cb6c7bH34UbckDTqW0YDs6[] = {
/* columns rows colors chars-per-pixel */
"64 64 99 2 ",
"   c gray18",
".  c #353535",
"X  c #3C3C3C",
"o  c #444444",
"O  c #4C4C4C",
"+  c #535353",
"@  c #595957",
"#  c #5B5B5B",
"$  c #636363",
"%  c #676969",
"&  c #6C6C6C",
"*  c #706F6F",
"=  c #6F6F70",
"-  c #6F7171",
";  c #747474",
":  c #787777",
">  c #7B7B7B",
",  c #7F807F",
"<  c #7F7F80",
"1  c #807F80",
"2  c #848484",
"3  c #8B8B8B",
"4  c #908F8F",
"5  c #8F908F",
"6  c #8E8E90",
"7  c #949494",
"8  c #979897",
"9  c #989897",
"0  c #9B9B9B",
"q  c #9FA09F",
"w  c #A0A09E",
"e  c #9F9FA1",
"r  c #A3A3A3",
"t  c #A6A6A6",
"y  c #A7A8A7",
"u  c #A8A8A7",
"i  c gray66",
"p  c #A9A9A9",
"a  c gray67",
"s  c #ACABAC",
"d  c #ACACAC",
"f  c #AFAFAF",
"g  c #B0B0AF",
"h  c #AFAFB0",
"j  c #B0AFB0",
"k  c #B2B2B2",
"l  c #B3B3B3",
"z  c #B4B4B4",
"x  c #B5B6B6",
"c  c #B7B7B7",
"v  c #B8B7B7",
"b  c #B7B7B8",
"n  c gray72",
"m  c #BABBBB",
"M  c #BBBBBB",
"N  c #BCBBBB",
"B  c gray75",
"V  c #BFC0BF",
"C  c #BFBFC0",
"Z  c #C0C0C0",
"A  c #C0C1C1",
"S  c gray76",
"D  c #C3C3C3",
"F  c gray77",
"G  c #C5C5C5",
"H  c gray78",
"J  c #C7C8C7",
"K  c #C8C9C9",
"L  c #C9CACA",
"P  c #CBCBCB",
"I  c #CBCCCC",
"U  c gray80",
"Y  c #CDCDCD",
"T  c #CFCECF",
"R  c #CFD0D0",
"E  c #D0D0D0",
"W  c gray82",
"Q  c LightGray",
"!  c #D4D4D4",
"~  c #D5D5D5",
"^  c #D7D7D6",
"/  c #D7D7D7",
"(  c #D8D8D7",
")  c #D8D8D8",
"_  c #DBDBDC",
"`  c #DEDFDE",
"'  c #DFE0E0",
"]  c #E1E1E1",
"[  c #E5E5E5",
"{  c #E7E7E7",
"}  c #E8E7E7",
"|  c gray91",
" . c #EAEAEA",
".. c gray93",
"X. c #EEEEEE",
"o. c #F3F3F3",
"O. c #F6F6F6",
"+. c gray98",
"@. c gray99",
/* pixels */
"f W f x h n x x f 0 3 t r 0 ; $ # 2 X & k y & $ $ & * # W ^ ; J h 0 @ 8 0 C B & # O O > X 7 t $ $ 2 3 2 9 t $ i t ; 1 : & o o $ ",
"f : ; 3 5 e 8 0 8 3 ; k W ` ) n 3 4 3 K 8 $ # : ; 2 3 2 ^ X.U b x 2 O 3 k W ^ U C j > ; & 7 ; $ 2 3 6 > 2 0 ; * 5 3 # . o + 2 S ",
"3 3 r i r 0 3 6 3 , o k @.+.^ J B J B A > $ * 2 2 7 4 3 v v r 7 f > # : > 3 7 0 0 i 0 7 y x 2 6 0 7 3 > > 8 2 O 2 3 8 > $ & b l ",
"0 7 t i 7 8 > 8 3 > o k O.0 3 1 2 r > i w * 2 3 3 2 2 2 k d 3 O 7 3 % 8 > 3 3 0 2 ; 2 0 W s 0 0 7 3 1 - $ ; & + i n x 3 # 0 X.i ",
"3 2 6 r 7 > ; 8 7 2 o B ( 3 3 ; ; 3 > 2 v B > & : 2 3 7 i f 3 + 3 t 3 > ; > 3 w r > & k ^ 9 7 7 2 2 ; + + O + 9 K H 0 ; 1 { { 0 ",
"2 1 & : 6 3 7 h t 2 O ^ ^ > : & & 2 0 7 7 I 0 # % % 3 k x v 0 $ 2 t x 0 > > 2 0 7 > $ ] k 9 5 3 2 > # + X : x W n > 1 7 + { ) t ",
": & ; : h h y t i 3 + / ^ 2 < : & 3 i s % i j : 2 r v b t 0 u 2 $ 8 B x f 7 2 0 3 2 3 ) 8 3 3 2 2 # o o 7 | X.r 3 4 r t X ^ W i ",
"8 $ $ : 3 8 0 f t 2 + ^ K 3 2 : $ > 0 e 3 * j 0 7 s f 0 4 : 7 2 + S  .W W K k n 7 3 x 0 6 > 1 : $   O r ^ K 3 3 e 0 t 7 O v W U ",
"W x e ; + # 2 5 3 : # W K 3 > & $ : 7 0 3 # t e P U r 3 2 $ > 2 + ` y 9 3 0 t B 7 - 0 ; $ + O o o O : S 0 3 3 7 7 3 0 3 # j ^ ) ",
"S f S I C 7 : + # # $ K H 2 : ; ; 2 7 t 8 O 0 8 i ) n > ; % : 1 + K t 0 7 0 0 t ; ; 2 > > > ; : % : r H r : 2 2 : > 3 7 O f H K ",
"; & 7 n H K U b 7 & 2 n x 2 3 3 7 r i t 1 O t 9 t K 0 0 > + ; ; + H 0 7 3 7 e 3 + ; 2 0 S W v r > 2 V ) W C 3 3 2 3 3 7 X j H 0 ",
"@ $ & ; > 3 v f t 6 7 l r > 3 0 t i i 0 % # j 9 3 7 3 3 j 8 # @ % U 8 3 3 3 3 : X $ 7 W ^ T 0 > : 2 i S U U I B 2 > > $ # n z % ",
"+ # % & > : 7 2 : > 8 t : : 3 8 0 u i r & > K h 3 2 7 : k j i w w W 3 2 3 2 2 . + ; i S t 0 2 2 7 t R B 0 9 j W E n & O 3 t 7 O ",
"& & $ $ & - 3 3 2 $ 0 z k s 3 3 7 8 0 3 > 3 E P 4 3 3 2 9 2 i n U H 3 * & * . + 3 k i t 8 3 3 0 r 0 K B B r 2 N S n : 2 0 s 3 ; ",
": ; ; $ - > 0 r > # i S ^ C f 0 2 9 0 2 2 4 B K 7 7 7 3 t e 3 > k C i 1 + o # 6 x e f B 7 2 3 w t 9 x H x 3 % 0 x s t 0 3 n ; ; ",
"> 2 3 3 3 7 0 0 3 & n { o.` i 7 2 * 2 ; 3 2 f J 0 r 0 3 3 8 e 8 ; 3 4 : ; : 3 h 9 9 j n x 7 7 r 0 0 0 n 0 % ; 7 S 9 6 9 0 n ; ; ",
": 3 8 0 3 6 3 0 7 = K ' B C ! l 8 > ; $ 3 7 0 H 8 0 3 2 : 3 0 0 2 @ : : > 8 x U r 2 9 n B x 7 9 8 9 7 r 2 @ 3 0 U 7 : 0 K b > $ ",
"> 2 3 7 2 2 2 3 7 ; K ^ i t i r B C ^ ) ^ l 0 I 8 8 3 : 2 8 0 8 ; o 2 t j B _ ) N 3 9 n C n n 7 3 4 8 1 & ; j v r 8 t : S S x ; ",
"3 e 0 9 2 ; 0 0 r : n n 3 7 r 0 r 0 B z H r 6 s 0 2 : : 3 f f 0 ; $ K K N 1 w H H s 0 e z f n V s 3 2 % + 2 0 C 1 2 x 7 3 0 u 0 ",
"2 2 3 7 2 > t y 0 : 9 7 3 0 3 : > 3 0 0 2 8 3 2 6 > : < 0 h x 0 . 3 W +.r 3 7 4 C I x 7 7 r x b n 0 ; @ & 0 i K 1 2 i i 3 2 K ^ ",
"i 3 2 3 0 0 r r 7 & : 2 i t ; ; : 2 8 : $ 1 3 ; 9 7 7 e h t t $ # B W v 0 9 e e 4 I K 7 3 3 i s 4 2 $ 3 8 0 k e 3 8 r j r : t ] ",
"R > $ @ # & # @ @ # ; k S 0 ; $ $ : 2 % o 7 3 > 3 0 e r 9 3 3 X r ) R 8 9 8 0 l 7 7 H j 2 2 4 7 : @ 8 M n i 0 9 7 3 8 n H x 2 t ",
") C 8 3 j i 3 ; 2 k U ` ` 2 % # # : 3 : O x : : ; 3 s + o X O 2 { ` 7 3 2 1 7 t 9 ; e j h 2 ; : + 2 k n v 6 0 0 7 7 0 k n 0 4 & ",
"o.{ H S R U U U )  .' U H & + + % 6 r 2 + t $ $ @ + O + 8 k n R ] i 3 2 , ; > 8 3 2 & 7 x t $ @ 4 h C x 2 7 k t 8 0 r 2 7 ; + & ",
"' 8 2 7 y M C H W n 7 0 S r : 3 r f y 2 + 0 t w x H K / ) S k B H 2 3 2 > & ; 2 2 2 2 > r k 7 3 0 n W 7 2 2 z h 0 0 0 @ @ = r o.",
"7 0 3 3 e l S A i 0 3 : t ^ e h S k 2 ; + 7 _ ] { Q v 3 > , 3 h i 3 3 3 > % : 0 3 2 2 3 & v r 0 7 B 8 0 7 3 k x 6 3 $ + f ) O.H ",
"3 2 ; 4 y M h 8 8 2 7 t > ) N e t t # O $ v } v 4 2 1 : : 1 O t i 2 : > > , 8 i 8 7 2 3 # H x l t U y 2 2 2 r 0 > : $ & P [ n 5 ",
"& ; > 2 7 2 3 3 6 2 3 h 7 0 N : > + % t k I u 9 0 0 0 4 > : o > 0 e $ ; > 2 7 r 8 2 : : % S K 3 : i A S 0 ; & 2 : 2 & $ K { s : ",
"& $ & 2 : ; 2 3 2 2 3 n t % t k n i } H s W x 3 3 3 3 3 7 7 $ $ 8 i % & > 1 3 3 7 2 : + e ) i : 0 j 0 0 n x e 0 > : ; : C ) H t ",
"j e 2 2 $ $ & 1 3 3 3 i 8 + 0 K  .O.B 2 % B ^ 9 3 3 2 1 3 3 2 + S k : $ : : 2 3 7 2 @ : U S & 2 t e 0 f 2 1 r C K f 4 > 0 t x k ",
"k i 7 3 @ o + ; 3 2 3 8 2 o i ^ H 7 2 < % w  .U 2 2 2 > 2 3 3 O K S 2 + + # * 2 2 : o y W 3 % 8 t 0 0 8 : $ r D K n 7 : 3 8 8 t ",
"t 0 > 7 > $ & > : ; < 3 o & A 0 ; 3 7 8 3 $ 0 H 9 > 2 2 2 > 2 $ v K r 3 ; & # O o O & f t # ; 3 3 : : O X , k 7 & $ $ & h i > 8 ",
"k 0 + 0 0 B A & # + O : X 7 t $ & 2 3 2 7 t $ u t : 1 ; % o o $ f W k x j n x v f 0 3 r e 0 > $ # 2 X ; k t % $ # & & # W ^ > H ",
"x 2 O 3 k R ^ I B h > ; $ 8 : $ < 4 3 > 2 0 ; * 6 3 # . o + 2 H i : ; 3 4 0 9 0 8 3 ; k W ` ) n 3 3 3 K 8 $ $ : : 2 3 2 ^ X.K x ",
"f ; @ ; 2 2 7 q 0 r 0 0 i x 2 4 0 3 2 : > 0 2 O 1 3 9 1 $ & x x 2 3 u i t 0 3 7 3 < o z @.+.^ K S K n S > $ * 2 2 7 4 3 n x r 3 ",
"0 3 % 8 > 3 3 0 2 ; > 0 W h 8 0 8 6 1 ; $ : & O i v z 3 + 0 X.i w 7 i i 7 7 > 7 3 > o k O.0 3 > 2 r > h w ; 1 3 3 2 2 2 k f 3 @ ",
"3 t 3 > ; > 3 r e < & k ) 0 8 7 3 2 ; + + o # 9 P H 0 ; 2 { { 0 3 2 6 t 7 > : 9 7 2 o C ) 3 2 : ; 3 : 2 v S > & : 2 2 7 i f 3 + ",
"2 t x 0 > : 2 0 9 : $ ] k 0 6 3 2 : $ O o ; x Q n > 2 7 + { ) t 2 < & ; 6 3 3 f y 2 O ^ ) < : & % 2 9 7 7 K 0 # % & 7 f x n 8 $ ",
"$ 8 S x f 7 2 e 3 2 3 ) 7 3 3 2 < # X o 7 { X.e 3 7 t r X ) W i : & ; ; h f i i y 3 + ) Q 3 > : & 3 y d % y k : 2 r x x t 0 t 2 ",
"O H } W W K j x 7 3 x 0 3 > > : $ . O t ) I 3 3 0 0 r 7 O n W P 8 $ & ; 3 8 0 f t 2 + Q K 3 2 : $ > 0 r 3 & k 9 7 i f r 3 : 8 2 ",
"+ ` s 9 3 9 r B 3 ; 0 ; $ + O o o O > S 0 3 3 7 7 3 0 3 @ k ^ ^ W x t & + # 2 6 3 : # ^ K 3 > & & ; 7 0 6 @ t w K U r 3 2 $ : 2 ",
"@ K t 0 9 0 e r ; : 3 > : > ; : % : 0 K t ; > 3 : > 3 7 O s H I S f H U C 8 : + # # $ H J 2 : ; ; 2 7 t 9 O 0 8 i ) N > ; % ; 2 ",
"+ H 0 7 3 7 0 3 + & 2 0 S W n r > 2 C ) W B 3 2 2 3 3 7 X k H 0 ; * 3 B H P P b 7 & < b k 2 3 3 7 0 i t 1 O r 9 y H 0 0 > @ * ; ",
"% K 7 3 2 3 4 : X $ 7 W ) W 0 > : 2 i C I R R S 2 > > $ # B x $ # $ % ; : 3 M s 0 7 8 k r > 3 0 e f i e & # h 8 3 4 3 3 k 7 # # ",
"e I 3 3 3 2 2 . @ : s C i 0 2 2 3 t U B q 8 f U P b * O 3 t 8 + O # $ & : > 7 2 : > 8 t : : 3 0 0 i i r & > U h 7 2 7 : k j i w ",
"U H 3 & % * . + 3 k i t 7 3 3 0 t t K B B t 2 B S b > 2 8 i 3 ; * % $ $ & * 3 3 2 $ e k k y 3 3 7 7 0 3 > 3 W U 7 3 3 2 9 2 i n ",
"z C i 2 + o $ 3 x 0 f C 7 3 2 r u 9 x H v 3 $ 0 b s t 0 3 n ; & : ; ; $ * > 0 t < + h S ^ B f 0 2 0 0 3 2 3 S K 7 4 3 3 r w 3 > ",
": 3 6 : : : 3 s 7 9 k n x 4 7 t 0 0 0 n 0 % ; 8 S 8 3 8 0 b : = 2 2 3 3 6 7 0 0 3 & n | o.` y 7 > & 2 ; 3 2 s K 0 t 0 3 4 8 0 0 ",
"2 @ ; : > 8 x U t 2 9 x B z 7 0 0 8 7 r 2 @ 3 0 U 7 : e H n : $ : 3 7 0 3 5 3 0 7 = U ] C S ^ k 7 > ; $ 3 7 0 K 9 9 6 1 : 3 0 9 ",
"; o 2 r f B _ ) S 3 0 n B n B 3 3 3 8 1 & ; f n r 8 r : H D x : > 2 3 7 2 < 2 5 7 ; H ) t i t t C C / / ^ l 0 I 9 7 3 > 2 8 e 9 ",
"; $ K I n 1 w H H i w 0 k s N N d 3 2 & O 2 0 B 2 1 x 7 2 0 y 0 3 0 0 8 2 : 8 e r : n n 3 7 r 0 r 0 B x J t 3 s 0 3 : : 3 i f 0 ",
". 3 Q +.r 3 8 3 B K x 7 9 t x v v 0 ; # * 0 s H < 2 i i 3 2 I ^ 2 2 3 7 2 2 e r 0 : 7 7 3 0 3 ; 1 3 e 9 3 7 3 2 3 > : 1 0 f x 0 ",
"@ N W n 0 0 0 r 4 I H 4 3 6 i i 7 2 $ 3 8 0 k 0 3 7 r h r : t ` f 3 2 3 7 0 r r 8 = : 2 i t ; ; : 2 7 > # 2 4 & 0 7 7 0 k t r $ ",
"r ` W 7 0 7 0 x 9 7 K f 1 2 5 7 : @ 7 n x h 0 0 7 7 9 x K x 2 i U > $ # $ & # @ @ @ ; k S 9 ; $ $ : 2 % o 7 3 > 2 0 r r 0 6 3 X ",
"{ _ 3 3 3 > 7 t 9 * r f k 3 : ; + 2 x n n 3 0 0 7 7 0 x n 0 7 * ^ B 8 3 h t 6 : < k I _ ` 2 % # $ : 3 : O v > ; ; 3 f + o . O 2 ",
"] i 3 3 2 - > 7 3 2 & 7 x i # # 3 f B x 2 7 h r 8 0 0 2 7 ; O & o.{ F S W P K U )  .` R H - O + % 3 t 2 O u $ $ @ + O + 0 k B I ",
"S 3 3 2 > % ; 2 2 2 1 ; r k 9 3 0 n W 7 2 2 z h 0 0 7 @ @ & r o.] 8 2 7 i n C H U n 7 0 S r : 7 r j i 2 + 0 t w x H K ^ ) C k C ",
"f 2 3 3 > % : 0 6 2 2 6 & n e 0 7 B 0 7 7 5 k z 6 3 $ + h ` O.K 7 0 3 3 r k A S s 0 3 > t Q 0 s B j 3 : + 7 _ ]  .W x 3 > 2 2 k ",
"u 2 ; , > > 8 i 9 7 3 3 # S b x y W u 2 2 2 t r 2 > # & U { n 7 3 2 > 6 t n k 7 0 2 7 t > ) S r t t # o $ v  .x 7 2 > : : > O t ",
"0 w % * > 3 7 r 9 2 : ; % S K 3 : y S S 0 = $ 2 > > ; $ H { i ; & ; ; 2 7 3 3 3 3 2 3 j 0 7 n : > + & t j I i 0 0 9 0 7 2 : o > ",
"8 i & & : 2 3 6 7 3 : + 0 / d > 0 f 0 0 n k r 0 ; : ; : S / S i & $ & 2 > ; 2 2 2 2 3 x t & t k v t { K f W x 3 3 3 3 3 7 9 $ $ ",
"B s : % : : < 3 4 1 @ : U S & 2 r 0 0 f 2 > r B I j 7 > 0 t x k f t 2 2 $ $ % 2 3 3 3 f 7 + 0 U  .O.B 2 % B ^ 7 3 3 2 2 2 5 2 + ",
"K S 2 + + # & 2 2 : o t W 3 & 9 r 0 0 8 : $ r H H n 7 : 3 9 8 t k y 7 3 # o + ; 3 2 3 7 2 o i ( H 0 2 2 % 0 X.K 2 2 2 > 2 3 2 + ",
"v H r 3 = & # + o O & k t + ; 3 3 : > O X 2 h 8 & # $ = j i > 8 t 0 : 7 > $ & > ; ; 2 3 o & N 7 ; 2 7 7 3 $ 0 H 0 : 2 2 2 : 2 $ "
};
