/* XPM */
static char *_059bdde58ec441ff162b4b610490699FeNztrJlLkR28ekQ[] = {
/* columns rows colors chars-per-pixel */
"64 64 191 2 ",
"   c #0E0904",
".  c #150D05",
"X  c #170F06",
"o  c #1C1206",
"O  c #1D1409",
"+  c #211507",
"@  c #271807",
"#  c #2A1A07",
"$  c #211609",
"%  c #25190B",
"&  c #2B1D0C",
"*  c #311F0A",
"=  c #261B10",
"-  c #2B1F11",
";  c #2F200E",
":  c #34220D",
">  c #3A260E",
",  c #3F280F",
"<  c #2D2111",
"1  c #342412",
"2  c #392712",
"3  c #372817",
"4  c #3C2A14",
"5  c #3E2D19",
"6  c #412A0E",
"7  c #4A2F0F",
"8  c #4F310E",
"9  c #51320E",
"0  c #432D13",
"q  c #492F10",
"w  c #422F19",
"e  c #473016",
"r  c #4C3215",
"t  c #45311A",
"y  c #4C351B",
"u  c #4E381E",
"i  c #533614",
"p  c #563916",
"a  c #5C3B15",
"s  c #503619",
"d  c #543A1B",
"f  c #5B3D1B",
"g  c #623E14",
"h  c #603F19",
"j  c #4D3921",
"k  c #553D22",
"l  c #583F22",
"z  c #5E401D",
"x  c #654117",
"c  c #6A4315",
"v  c #63431D",
"b  c #6B451A",
"n  c #6D491D",
"m  c #724715",
"M  c #734916",
"N  c #734B1C",
"B  c #7A4F1E",
"V  c #7C511E",
"C  c #5D4223",
"Z  c #634522",
"A  c #694621",
"S  c #654825",
"D  c #6B4A23",
"F  c #634729",
"G  c #634829",
"H  c #6C4E2A",
"J  c #724D23",
"K  c #6C512F",
"L  c #755125",
"P  c #7C5324",
"I  c #74522B",
"U  c #7C562A",
"Y  c #7D592E",
"T  c #745430",
"R  c #795731",
"E  c #7D5A31",
"W  c #84541D",
"Q  c #88561E",
"!  c #8C5A1F",
"~  c #955D1D",
"^  c #995F1D",
"/  c #95601F",
"(  c #9D621E",
")  c #A0631F",
"_  c #825624",
"`  c #855926",
"'  c #8B5C24",
"]  c #805729",
"[  c #835B2B",
"{  c #8B5E2A",
"}  c #935E22",
"|  c #835E34",
" . c #8C602D",
".. c #946126",
"X. c #9B6424",
"o. c #93642C",
"O. c #9A662B",
"+. c #9C692D",
"@. c #876133",
"#. c #8C6333",
"$. c #89653A",
"%. c #8F6638",
"&. c #936532",
"*. c #986730",
"=. c #956935",
"-. c #9C6B33",
";. c #956B3B",
":. c #9B6E39",
">. c #9D713D",
",. c #A16624",
"<. c #A56A23",
"1. c #AB6C23",
"2. c #A26C2C",
"3. c #A96F2B",
"4. c #A6702E",
"5. c #AC722D",
"6. c #B37226",
"7. c #BB7727",
"8. c #B3752D",
"9. c #B9772A",
"0. c #BA7829",
"q. c #BB7A2D",
"w. c #A36E32",
"e. c #A86F31",
"r. c #A26F38",
"t. c #A47135",
"y. c #AB7434",
"u. c #AF7837",
"i. c #A4733A",
"p. c #AB7639",
"a. c #AC793C",
"s. c #B27632",
"d. c #B47934",
"f. c #BA7C35",
"g. c #B47C3C",
"h. c #BA7F3B",
"j. c #C27A27",
"k. c #C17F32",
"l. c #976F40",
"z. c #9D7241",
"x. c #A37642",
"c. c #A67943",
"v. c #AC7C43",
"b. c #B17D41",
"n. c #BF8137",
"m. c #B7803E",
"M. c #BC813C",
"N. c #C58334",
"B. c #CA8534",
"V. c #C3843B",
"C. c #C88539",
"Z. c #CB8A3D",
"A. c #D18936",
"S. c #D38F3E",
"D. c #D3903F",
"F. c #DB913B",
"G. c #B68245",
"H. c #BC8442",
"J. c #B5834A",
"K. c #BB8649",
"L. c #BD894C",
"P. c #BF8C52",
"I. c #C28642",
"U. c #C58A44",
"Y. c #CD8D42",
"T. c #C58C4C",
"R. c #C88D4B",
"E. c #D18F43",
"W. c #CC914E",
"Q. c #D49143",
"!. c #D2944C",
"~. c #D6984F",
"^. c #DA9A4E",
"/. c #C28F52",
"(. c #CB9452",
"). c #CB9457",
"_. c #D39752",
"`. c #D49953",
"'. c #DE9D51",
"]. c #D49D5A",
"[. c #DB9E59",
"{. c #E29C48",
"}. c #E09F53",
"|. c #DBA05C",
" X c #EFA857",
".X c #E0A259",
"XX c #E6A65A",
"oX c #ECAB5D",
"OX c #F0AA58",
"+X c #F4B264",
"@X c #F8B567",
/* pixels */
"@.|.+XP.J.k = O K E #.Y Z f 0 w  .M.L [ ' v > : 6 N <.W B g 7 # c ~ ( Q c 6 @ 6 2.5.5.v P P 0 f g.[ Z -.:.Z 5 I K.W.).z.z.l.C 5 ",
"K P.].c.z.t % $ ;.K.v.&.D l w 0 D w.` ` ..b > > , V 9.<.) m * # m ~ ) ( W 9 : 9 N V B n _ J 1 : f A D a.g.I y H G.T.`.E T E j 3 ",
"j z.P.J.J.C - 5 (.OXXXI.-.I f w d o.o.O.O.P q : : B 1.1.,.g # + m ~ ) ( Q 9 o @ 9 i a L O.J 0 1 Z  .&.p.G.D 5 C G.T.J.I T K 3 O ",
"j z.l.z.z.R 5 t c.~.!.H.| Z e 0 f ` y.5.+.' e ; : V 1.1.( g # + m 1.) ( B 7 .   r P X.2.s.P i e { M.I.:.i.D 2 y $.| #.| E F 3 O ",
"G z.%.;.;.R 5 5 &.~.~.H.I y : & f e.s.t...N > # , b X.( / a @ . M j.7.) Q 7 o o V q.F.B.q.L y s [ u.t.Y [ D 5 Z ;.E x.b.l.C 3 = ",
"R ).|.(.J.@.t 4 E R.}.r.D 0 & & n Z.V.s.O.b * % p x <.( / p + . x 6.X.M a 6 @ : X.q.A.3.{ p 2 r { g.g.[ ] I u I c.z.}./.v.K < - ",
"l.|.+X(.c.K t 3 D v.:.Z Z d 2 1 U A.y.P P f > > V b ....Q > . . b ( ( Q g 9 # 6 ' 8.k.W h s 1 q { -.y.&.:.[ D @.i.%.(.b.x.T 3 - ",
"c.)._.>.%.C 4 1 H G.p.Z L D d y { V.5.P P b 6 0 ! x V } ! , o + b ..+.<.! b : > _ 3.} P ' P p s P  .h.H.i.D y C ;.:.(./.T.c.j 5 ",
":.K.G.=.| F 2 3 [ W.!.&.H.&.d e { f.{ P ` a * 2 P h V X.' a & : _ 8.8.1.X.x : & n X._ ..O.n p y L P L D Z y 1 t Y c.b.:.| I w w ",
"| G.v.;.[ H 0 0 [ !.I.] &.P e 0 I s.+.` ' h * 0 B a V ..W N : > ..k.N.8.5.a @ % N 3...+.+.h q 4 Z t.w.[ D H e u { -.Y I H Z 4 < ",
"D @.#.@.I Z 5 5 =.i.&.&.i.{ 2 $ p +.y.+.{ n i b n v _ 2...' : 0 ..N.k.2. .7 + $ N 5.3.2.O.J y q v w.t.o.[ L t k ;.=.-.i.a.;.y - ",
"d I [ =. .H e 1 H J #.i.i.] 0 $ y  .f.2.{ n 0 a p b ' 5.' N : 0 ` y.8.X.B > + * ` s.d.+.2.P r 0 v -.i.-.-.U e s &.:.i.R.K.:.1 % ",
"F g.H.H.g.[ y 2 J Y a.M.g.[ e 1 [ n.Z.u.{ x : 6 4 P 8.s.{ f : e ..s.d.O.g 0 : w +.C.d.{ ` f % $ e o.g.y.o.J w d a.m.I.m.h.&.& o ",
"Z g.Q.U.U.&.e 1 D o.g.g.-.U s 1 A u.f.o.` y $ % > _ N.y...p : : v [ O.P a f : 0 ' f.e.{ ` s % X 0 &.m.p. .Z 2 d d.g.g.d.a.Y % . ",
"f i.I.h.V.U : - J g.I.M.w.U e & p a.Z.' J r + : p ` t.O.U p 1 ; Z { 2.U f v : : P y.2.{ { y $ . e e.g.i.L w % : v U U U D Z 1 O ",
"d  .u.I.u.d % % ] V.w.-.w.J : % r p.Y.-.{ v : y  .u.Z.y.L n 4 & f u.d.{ n n : $ J w.O...o.s % % d i.Q.d.U 0 O % z  .[ U z Z 4 O ",
"d -.+.V.M.s % % U d.+.+.-.u $ O D V.Z.-.o.v 2 f *.w.M.f. .` 5 % r -.t.U A v : : { V.*.o.*.Z 1 : Z d.{.g.] w o 1 -.S.Z.d.-.U * $ ",
"L M.V.h.f.s % + n o.o.y.V.z % % [ M.m.-.U A 5 z m.Z.Q.m.[ { 0 O u y.[ z A v 4 4 e.E.w.*.o.f & 1 J t.Z.y.P 6 . 1 w.S.Q.+.` A : & ",
"y ` w.y...0 O o n 2.+.d.n.p o % [ p.u.t.L Z 0 p -.t.p.&.v Z 1 $ A m.p.[ [ L e y &.p.-.=.-.d % < J -.s.-.P 2 . 1 w.d.Q.[ b u & % ",
"0 _ e.y._ : o o P M.f.d.t.0     n o.a.o.A L e 5 L U U L D Z 1 ; C t.H.-.&.U u f { -.w.=.&.f & 1 U w.O.A p : % q d.N.C.B r 1 O X ",
"n s.d.y.v : . & O.F.D.N.+.e .   [ -.[ A [ [ 3 % z @. .-.a.@.5 u H a.p.>.*.Y t u C [ -.a.i.J 0 1 P w._ h s q w g 2.` _ n f 4 & & ",
"5.F.B.8.p & o 0 5.q.+.P J 0 $ & y.Y.w.*.a.D & O z G.H.W.'.Y : u U a.m.-.=.L 1 1 Z #.g.U.g.I 2 % v h.[ v P L f p n f b N n p s i ",
"{ F.A.5.r : o r 2.2.P v v q & r o.g. .u.t.C & < i.OXU.(.W.U 1 C I i.W.W.K.Y 2 2 I b.^.U.{ s $ o v V._ h ..` s : r a n B ` B v r ",
"y X.8.! 7 > # p 2.3.B n N v r d ` M.I Y { y 1 t U =.Y =.:.S < j H H i.#.Y z t t @.U.`.a.S 2 o % U w.J N +.D * @ 0 N ' X.X.W i > ",
": V 5.W r p 6 a ..+.! B ..{ v f J t.U U  .u 1 < t G S R I u % % t C ;.c.=.C 3 w | K.U.-.L s % % f n v O.5.h % + h 1.9.B.6.N * + ",
"7 ..6.W a c 7 i ..8.5.o.s.+.d : 2 v o.-.#.d t 1 y #.%.x.;.E 3 . 1 E K.(.v.I 5 e E R._.g.i.U 2 w D P [ 2...i % & ` q.' B c > o . ",
"a X.<.~ M x 8 > V 5.N.+.4.J ; o % z -.y.&.z u 5 C `.|.oX|.x.C < G T.oXXXL.@.u C b.}.!.H.p.D & 1 D ' f.s.O.y # : N ,.' m N > . . ",
"! <.<.<.~ a 7 : b 3.q.+.2.p O   4 -.I.a.#.z d 5 z `.oX@X|.$.5 = C (.oX].L.| 5 5 H #.@.&.#.s O & D n d.s.+.i @ % a } B b W g : > ",
"Q ) ) 7.7.a : # x ..8.+.+.q .   z M.E.H.g.I u 3 y J.(.`.(.H < O j ).[.J.c.K % < E v.:.[ [ s % & D h w.+...i % + a } ' ! ( g : 6 ",
"x ) j.j.6.9 # + c X.q.P J 4 O   z t.I.a.[ y & & j G.L.J.L.R 3 = j v.x.T K t X % I G.a.:.:.D 2 < D n +.s.+.n * % h 1.1.6.6.g @ @ ",
"8 ( ~ g 9 : o + V 5.n.n B p ; ;  .t.M.-.H 2 O 1 E K.K.L.J.K 3 < k J./.x.l.k O O H :.v.a.@.U 4 & J o.-.f.y.B 6 : h 3.6.7.~ 6 o . ",
"9 ( ^ m a # . o V 8.N.v _ D 0 e -.=.#.i.@.y < C G././.J.z.C 1 = K ).+X)./.K 1 = =.U.`.R.I U 1 & A m.{ d.y.N > & 6 N Q m 9 > @   ",
"c / / Q x 6 + 6 O.8.8.v P P 0 f u.[ Z :.:.Z 5 I L.R.).z.z.l.C 5 $.].@XP.v.j = O I | #.E Z k 0 w { h.L `  .z > : 4 N 3.V M x 7 # ",
"m ~ ) ( W p > 8 N B N n _ J 1 1 f D D i.b.H y D J./.`.E R E j < K P.].z.z.j = = ;.K.b.#.D f w 0 D w.` [ o.b > > 6 V 9.<.) M : # ",
"m ~ ) ( W 9 o + r i g L O.J 0 : Z  .&.u.g.D 5 l b./.v.K T T 3 O j z.P.P.J.C = 3 W.OXXXI.:.I f 0 f { O.+.O.V 7 > > M 1.1.) g @ + ",
"M 1.) ~ W 7 .   r _ ..2.s.P s r { I.H.w.p.H 5 y %.| l.R $.G 3 O j z.l.z.z.R 3 j i.~.!.H.[ Z y 0 f { 2.y.2._ 7 : > B 1.1.) g # o ",
"M j.j.) Q 8 O o V q.F.B.q.L s s [ u.t.[ | Z 5 Z :.E z.v.;.F < = F ;.%.;.l.T 3 5 =.~.`.H.I y 1 & f e.d.2.O.n > % > b X./ ( x # o ",
"c 6.) m 9 6 @ : X.q.A.3.{ p 2 q { u.a.{ [ I y U c.r.}./.v.K 1 - E ).[.(.J.| j 5 Y R.}.w.D 0 & & A Z.C.8.+.v : % 9 x 3.X.~ 9 o . ",
"c / ( Q g i & 6 _ q.k.V h s 1 q { -.i.=.-.{ D { x.%.(.b.x.I 1 < l..X+X(.v.K 5 3 D v.:.Z Z p 2 : U Z.8.P P a 6 > V b ..X.Q : . o ",
"b X.X.2.' M : : W 8.} P ' L f s L o.V.b.i.H t l ;.:.W.).T.c.j 5 c.(.`.z.%.l 5 1 H G.p.Z I D d y { V.y.J V b 0 6 ` x V ~ Q , o + ",
"` 6.6.3.X.b & & N O.` ' O.J s s L P J I Z y 2 e Y v.b.:.@.I w w :.T.v.&.| G 2 2 E W.!.*.g.&.d y { f.{ P ` a & > W g V X.' a & : ",
"..k.N.8.3.g @ # N 3.} 2.+.h q 2 A e.w.] D D e j @.=.Y I D F 4 < | G.b.;.| D e 0 | W.V.Y =.U w 0 P s.+.` { v : 0 B a P ..W N : > ",
"..N.k.2.' q + + N 3.3.w.O.J r q Z w.t.o.[ L t k ;.=.;.i.a.;.y - H #.#.| I Z 5 5 =.i.=.#.t.{ 2 $ y O.y.+.} D e b n v V 2...' > 0 ",
"[ 5.8.O.P > + & ` s.s.2.2.L s 0 v *.i.-.=.U w y *.-.i.Y.I.:.1 $ d H [ *.#.D 0 1 H J #.t.i._ 0 O y o.d.3.` n 8 a p n ..2.' n : 6 ",
" .q.d.O.h 0 : q O.C.f.{ _ f % $ 0 *.h.y.o.H 0 d a.m.H.m.H.#.< O F g.I.K.g.[ e w L ] y.H.m.[ r 1 [ M.Z.y.{ f : 0 4 V q.d.{ v : 0 ",
"v ` O.P a f > 0 ' f.2.' [ s % . w o.h.i. .Z 2 f p.g.g.g.u.Y % . F h.E.U.Y.&.e 1 A &.d.g.-.U d 1 A d.d.O._ i % % > U N.y.{ a : : ",
"v  .+.U f Z * : P y.w.{ { r O O e w.g.y.I 0 % 1 Z P U U D Z 1 O f i.I.g.V.U : & L g.Z.m.w.I e & d d.Z.[ J y + : d ` 2.o._ d 1 : ",
"z y.d.{ n A * % J w.O.o.o.s % % s u.E.g.] 0 O $ z ..` U z Z 2 $ d  .a.V.p.d % % U V.t.-.w.J 1 $ y t.E.w.' v : y  .y.Z.a.P b 4 % ",
"e -.t.U v v 2 ;  .n.+.o.-.C : 1 Z p.{.g._ w $ 1 -.Y.Z.s.*.] : $ p +.+.V.n.u @ # U d.*.+.+.u $ O n V.Z.-.o.A 2 p =.t.h.h.{ _ w % ",
"u y.[ v A v 5 4 t.D.-.&.o.z & 1 D y.U.y.L 2 . 1 y.S.E.-.[ n : & I M.V.V.f.p % O n o.o.y.Z.v $ % [ m.g.-.U A e z g.Z.Q.m.[  .0 + ",
"A G.p.` [ L e y o.a.-.-.w.d % ; J w.s.-._ 6 X 1 3.d.S.{ v r % % y ` w.t...3 + O D +.+.d.M.p o % [ p.a.t.L A w u -.t.t.o.Z f 1 $ ",
"C t.H.-.&.U u z  .-.-.-.=.d ; < U w.o.b i : + 7 d.V.C.N s : $ o 0 _ 4.y._ > . O P n.f.d.t.0     A o.d.o.A L q 5 L U U U D G 1 < ",
"H a.p.>.&.] e y C [ -.a.t.D e 1 U y._ f i r 0 v 2.` _ n a 4 # & v y.d.s.x ; . & O.F.S.n.+.e .   [ -.U D [ U 1 & z [ #.-.g.| w y ",
"U a.G.-.-.I 2 < F #.g.U.g.L 2 % v f._ n P J a p b v v B N p y i 5.F.B.8.a # o 3 8.f.+.V B 0 O : y.Z.t.&.g.D & O C G.H.!.}.[ 1 s ",
"I i.W.R.K.Y 2 2 I g.^.U.@.s $ O v V._ v ..` r > e a n B _ V v r  .D.A.5.e : + 7 2.4.P v f e : e &.m. .p.t.C & < i. XI.!.!.I 1 k ",
"S H i.=.] C t t [ K.'.a.A 2 o $ U -.N D +.n * % 0 N ` X.+.Q r > r X.q.' 7 , & p 2.3.V b N v r d ` m.L ` @.p < t Y &.Y ;.;.H - s ",
"w l ;.c.%.l 3 w @.K.R.-.I y & % v n n ..y.h @ O v <.0.B.6.M * + > V 5.W 8 p 6 a ' 3.` V O.' v p L t.U U { u 1 < t S G R I u % < ",
"3 | K.(.v.I w w [ U.!.g.t.I 4 4 n L ] 2...p @ & _ q.! V c > o . 7 / 8.W a x 7 r ..8.5...5.+.d : 0 v  .-.#.z t < y #.;.x.=.R 1 . ",
"F T.oXXXT.| j Z v..X^.H.a.D & : D { f.s.O.y # : B ,.Q b N > . . a X.1.~ M x r > B 5.N.2.4.J & o $ f -.p.#.f p 5 C `.].oX[.z.C < ",
"F (.oX`.L.| 5 3 H #. .&.#.s O & D n d.s.-.i @ % a } V m W a > > ! <.<.<.~ a 8 : n 1.q.+.2.f O . 4 -.I.a.&.C u 5 C `.XX@X|.;.w = ",
"j ).[.J.c.K = - Y b.:.[ [ y % : n v w.+.O.i @ O a } ! ! ) g * 6 ! ) ) 7.7.a : # g ..q.+.O.w .   z M.Y.M.a.R u 4 u J._.`.(.K < O ",
"t v.c.T K j   = I b.v.r.:.D 2 < D D +.y.+.b : # v 1.3.6.6.g @ + c ) j.j.1.9 # + v X.d.P L 2 o . z t.U.a.[ u & & k v.L.J.L.R 3 = ",
"k P.).z.%.C = O I ;.a.c.@.U 2 & D o.-.f.y.B 6 : h 1.6.6.^ 7 o . 9 ( / g 9 : o O B 5.n.n B i & & { t.H.-.H 2 O < E L.J.L.c.K 3 < ",
"G ).@X).P.H < = %.U.^.R.I U 1 % n M. .d.y.b > & w N ! b 9 * @ . 9 ) / m a # . o W 5.N.b _ D 0 e t.=.#.i.#.t & C J.R.P.P.z.C 1 = "
};
