/* XPM */
static char *_cf53bab60c54796aac630e88fb12d673YOYJXjMiK5o6jqM[] = {
/* columns rows colors chars-per-pixel */
"64 64 211 2 ",
"   c #0182FF",
".  c #0A86FF",
"X  c #048BFF",
"o  c #0A8CFF",
"O  c #138CFF",
"+  c #1A8FFF",
"@  c #0693FF",
"#  c #0C93FF",
"$  c #0B9AFF",
"%  c #1394FF",
"&  c #1B93FF",
"*  c #129BFF",
"=  c #1B9CFF",
"-  c #2294FF",
";  c #2995FF",
":  c #239CFF",
">  c #2C9CFF",
",  c #329CFF",
"<  c #0DA3FF",
"1  c #0EACFF",
"2  c #16A2FF",
"3  c #1AA5FF",
"4  c #13ACFF",
"5  c #1BABFF",
"6  c #15B1FF",
"7  c #1DB3FF",
"8  c #14BCFF",
"9  c #1CBDFF",
"0  c #24A4FF",
"q  c #2BA4FF",
"w  c #26A9FF",
"e  c #2AADFF",
"r  c #34A4FF",
"t  c #3BA5FF",
"y  c #35ACFF",
"u  c #3BABFF",
"i  c #22B5FF",
"p  c #2DB1FF",
"a  c #25BBFF",
"s  c #29BEFF",
"d  c #33B4FF",
"f  c #3CB3FF",
"g  c #34BAFF",
"h  c #3ABDFF",
"j  c #43A4FF",
"k  c #4AA7FF",
"l  c #44AAFF",
"z  c #4CACFF",
"x  c #52ADFF",
"c  c #42B5FF",
"v  c #4DB4FF",
"b  c #45BBFF",
"n  c #4ABEFF",
"m  c #51B3FF",
"M  c #5CB5FF",
"N  c #51B9FF",
"B  c #5BBDFF",
"V  c #66B6FF",
"C  c #64BBFF",
"Z  c #6CBCFF",
"A  c #79BFFF",
"S  c #1EC4FF",
"D  c #16C8FF",
"F  c #1BD2FF",
"G  c #1DDEFF",
"H  c #21C4FF",
"J  c #2BC5FF",
"K  c #25CBFF",
"L  c #2CCBFF",
"P  c #32C5FF",
"I  c #3DC2FF",
"U  c #31CCFF",
"Y  c #3ACDFF",
"T  c #2AD3FF",
"R  c #35D3FF",
"E  c #3BD4FF",
"W  c #36D9FF",
"Q  c #3BDBFF",
"!  c #1EE1FF",
"~  c #21EBFF",
"^  c #35E1FF",
"/  c #3EE3FF",
"(  c #3EECFF",
")  c #24F4FF",
"_  c #26FCFF",
"`  c #28FFFF",
"'  c #43C6FF",
"]  c #4DC1FF",
"[  c #44CAFF",
"{  c #4ACDFF",
"}  c #54C5FF",
"|  c #5DC1FF",
" . c #55CAFF",
".. c #5BCCFF",
"X. c #42D5FF",
"o. c #4CD2FF",
"O. c #4BDDFF",
"+. c #52D4FF",
"@. c #5ED0FF",
"#. c #54DBFF",
"$. c #5CDDFF",
"%. c #63C5FF",
"&. c #6CC2FF",
"*. c #66CBFF",
"=. c #6BCBFF",
"-. c #73C5FF",
";. c #7CC3FF",
":. c #73CFFF",
">. c #7ACAFF",
",. c #62D2FF",
"<. c #6BD3FF",
"1. c #63DCFF",
"2. c #6CDBFF",
"3. c #74D1FF",
"4. c #7CD3FF",
"5. c #72DEFF",
"6. c #7ED8FF",
"7. c #44E4FF",
"8. c #4BE5FF",
"9. c #44EAFF",
"0. c #4CEBFF",
"q. c #56E2FF",
"w. c #5CE3FF",
"e. c #51EDFF",
"r. c #5EEAFF",
"t. c #46F3FF",
"y. c #4AF6FF",
"u. c #4EFDFF",
"i. c #53F2FF",
"p. c #5BF4FF",
"a. c #55F9FF",
"s. c #5CF9FF",
"d. c #61E3FF",
"f. c #69E6FF",
"g. c #64ECFF",
"h. c #6BECFF",
"j. c #73E1FF",
"k. c #7BE5FF",
"l. c #72EDFF",
"z. c #7CEAFF",
"x. c #64F3FF",
"c. c #6BF4FF",
"v. c #63FCFF",
"b. c #6DFCFF",
"n. c #73F5FF",
"m. c #74FCFF",
"M. c #7BFDFF",
"N. c #8AC5FF",
"B. c #84CBFF",
"V. c #8CCDFF",
"C. c #94CBFF",
"Z. c #99CFFF",
"A. c #84D1FF",
"S. c #8DD6FF",
"D. c #83DBFF",
"F. c #8BDCFF",
"G. c #91D2FF",
"H. c #9BD2FF",
"J. c #95DBFF",
"K. c #9BDDFF",
"L. c #A5D8FF",
"P. c #ABDAFF",
"I. c #B5DEFF",
"U. c #84E7FF",
"Y. c #8CE3FF",
"T. c #82EDFF",
"R. c #92E5FF",
"E. c #9EE1FF",
"W. c #95EAFF",
"Q. c #9BECFF",
"!. c #86F2FF",
"~. c #8BF5FF",
"^. c #83FCFF",
"/. c #8DFCFF",
"(. c #93F5FF",
"). c #9BF4FF",
"_. c #94FCFF",
"`. c #9BFDFF",
"'. c #A5E3FF",
"]. c #A8E7FF",
"[. c #A3ECFF",
"{. c #ACEAFF",
"}. c #B4E4FF",
"|. c #BAE6FF",
" X c #B3ECFF",
".X c #BEEAFF",
"XX c #A3F3FF",
"oX c #A9F6FF",
"OX c #A3FDFF",
"+X c #ADFAFF",
"@X c #B6F2FF",
"#X c #BCF3FF",
"$X c #B3FDFF",
"%X c #BBFEFF",
"&X c #C7E8FF",
"*X c #C3EDFF",
"=X c #D5EDFF",
"-X c #D9EDFF",
";X c #C1F5FF",
":X c #CCF2FF",
">X c #C5FAFF",
",X c #CCFDFF",
"<X c #D3F5FF",
"1X c #DCF3FF",
"2X c #D1FDFF",
"3X c #DBFAFF",
"4X c #E5F3FF",
"5X c #E3FDFF",
"6X c #EDFCFF",
"7X c #F2FCFF",
"8X c #FBFEFF",
/* pixels */
"_ 8 X @ $ ! ` ` ` D   X @ X @ @ X X X   @ 8 _ ` ` ` ` ` ` ` _ ` _ G _ ` ) ) ` D $     X @ X @ $ X X     F ` ` G   X X       G u.",
") R T / ( u.u.u.t.5 @ *   X # @         L y.u.u.y.t.u.y.y.u.u.u.y.2 L t./ / t.i     X     X o 2 X $ X   U u.u./ X     X   4 b.u.",
"` u.m.m.m.m.m.m.m.J X #     X X X   @ W b.c.q.o.[ w d w.g.#.g.m.c.w * { #.c.9.4     X X       # * O o X p c.m.x.%   o % s y.m.u.",
"` u.m.m.a.0.i.M.b.W       X     X 7 9.m.~.2.% & y % . ] 5...f._.r.* X 5 ' l.9.<   X     @ X o % O   o o q T._.!.u o : ..c._.b.y.",
"` u.i.L 4 $ 4 7.M.p.K 7 & @ @ H Q i.m.~.*.> . t | t   N 3.v 1.m.J     X 2 +.q.5       X #   o O O   o & | +X$X$XQ.W.!.$X`._.m.u.",
"` u.F         $ 9.M.v.c.k.q.9.v.m.M._.4..   - C A.B & m -.v Y._.'       o b d.P $     X # X o O & O & - -.,X,X,X$X`._._.`./.m.u.",
"_ W $   X   X   o._.^._.+X_.M.^.~.(.oXA.+ z ;.B.B.V.-.B.P.|.>X$X2.o   X   f j.$.E 4   X o X     . - > & Z 3X,X%X$Xb.g.o.3.^.m.u.",
"8 $ o X X X X o ..$X+X$X/.5.k.T.oX+X XZ j Z.L.V x '.>X$X>X3X,X$XT.=     X p 2.j.w.J X       X X o q t & B.,X%X(.2.a 2   % 1.b.( ",
"X $ 2 X   X   o 1.$X$X_.q.e e  .XX>X:XC.A P.P.A >.$X$X`.$X>X$X`.M.[ $     3 o.2.w.Y $     X # = 0 v j , K.$X_.w.0     < P l.i.7 ",
"@ 2 % * X   o : F.$X~.o.5 @ * d !.$X,X3X1X-X<X#X$X`._.n.~.Q.XX(.M.v.K   X 7 { @.2.$.Y 4 o @ = y v M m M Q.(.d.w o X X J g.m.W @ ",
"@ * % *   X % 2.$X~.' #     X # g._.$X,X3X3X2X$X(.n.#.R [ q n { x.m.x.T 5 I  .-.4.5.w.X.[ h f t C C ;.XX!.] * X   X s c._.m.J X ",
"@ #       4 0.M._.f..     X # % j.$X,X3X.X X%X(.f.J # @ @ % o * 3 U c.s.c.j.*.v z F.(.M./.~.W.J..X<X<X#X:.o   5 K / x.(._.n.a X ",
"@ o     X Q m._.(.{   # o X   . D.>X>X*XG.Q.`.m.W $     X o       X 7.m._.+XK.C.K.>X$XOX$X%X2X5X7X7X4XL.t & = +.s.m._.$X_.d.* X ",
"  X 3 S X.m._._.n.i   * .     O [.$X+X{.|. X+X/.#.#   X o % o @ X   g !.$X>X3X>X;X+X~.T.!.oX>X5X7X7X=XZ.Z K.J.(.M.^.`.$X_.c.2   ",
"F / c.v.m._.U.m.i.2   o     . N (._.!.W.{.*X>X$X!.p @ % * * % X X o : Y.>X3X,X+XR.2.{ Y [ ,.W.>X5X4X=X&X|.#XoX~.h.g.n.`.OX^.q.T ",
"` u.b.M._.$XQ._.c.5     o q =.(.^.g.w.j.R.@X2X$X_.j.e # o o # X     c oX2X;XA...b g 5 2 2 p 5.oX,X<X&X.X XQ.^.#.i i X.m.$X_.m.u.",
"! ^ o.2.XX;X>X$X_.o.4 e ..Y.OX^.r.H i p  .6.XX(._.n.O.4         X * #._.+X*.u e e *     X i #.(.$X#XP.E.Q.!.w.7 X   2 0.M._.b.u.",
"X X o : c >.*X,X$X!.w.2.oXOX^.v.K     * g b n w.x.m.c.E X # 2 6 R g.(.$X[.y = # @     X # [ T.`.$XE.z C K.W. .%     $ g.OXM.e.K ",
"  X 2 p q u &.*X,X$X(.oX,X%X(.h.P < 3 h n b e # i 8.M.m.7.g.w.i.m._.+X$X_.]   @       @ [ T._./.~.D.t O B.{.4.=   5 { !.M.i.S   ",
"X $ e c : & q S.<X,X$X,X3X;XR.2.+.J '  .n h 3 X   < 7.M.m._.M.s.9.' @.XX$X2.w 5     p #._.`.l.w.f.5.| - -.|.'.%.c +.T.oX_.g.5   ",
"@ 2 p e %   . %.{.<X,X3X&XH.B.=.} d q r u p i $     J m._.m.7.a X   # ..+X+X!.g.Q q.!.(._.z.E 3 s 1.U.-.4.'.|.'.Y.T.XX$XT.g # X ",
"@ 2 p = X     n R.@X3X3X=XI.V.&.B f & & > q p $     4 i.^.a.8     X   % j.+X$X_.m._.%X`.^.X.$   6 e.M.`.).[.{.*X@XXX>X$X!.= @ @ ",
"@ * 2 X   X 3 o.j.Q.,X5X6X4XC.Z C B z z l t c 3 X   i c.m.y.$   @ @ X w z.$X+X$X_.+X#X$X`.l.g H e.^.`._.^._.{.}.:X>X,X$X~.h   X ",
"X 2 $     5 #.z.6.J.3X7X8X7XC.j > > j M M z v y # o h /._.w.o   @   X P b._._._.!.5.N >.$XOXM.s.M.~.g.g.e.l.U.4.E. XQ.T.g.R X   ",
"  @ @   @ [ k.Y.A.K.3X7X8X7XI.C O   + j k j , & % e ,.oX_.!.w X     < 7.M.m.c.w.I = = B ;X$X(.g.,.I i 7 9 X.1.2.D.J.%. .d.e.4   ",
"D 7 e J o.k.Y.S.G.|.5X5X1X1X3XP.z . O ; - ; - + m T.$X$X_._.2.g a K 0.M.m.u.i #   X e 2.oX#XB q 0 5 $     6 X.f.k.3.> O } l.q.K ",
") y.c.g.z.D.M z ;.3X,X,X:X3X>X$XD.-     O . + | `._._._.m.M._._.m.v.^.M.y.8   X   @ Q c.j.u r % = 3 @     @ [ T.Y.v + . y l.b.a.",
"` t.g.z.W.-.k -.E.>X$X+X@X X[.~.~.U.:.%.A.S.D.T.m.g.q.#.Q / m.`._.^._.g.I X   X   9 p.g.} . ; : q w # X   o e 5.:.t + O q 1.b.u.",
") Q o.j.D.-.V. X+X+X/.!.:.t & e r.m._._.%X$X`.m.9.3 o     X 7.M.`.`.c.g X       X R h.o.%   & : : = #       * ' c .     :  .v.u.",
"< J h y u A.#X+X/.z.[ g o       5 Q g.c.`.`.M.u.8           K v.^.m.W X       @ L w.R #   % & : & % % #   X 3 2.=.- . & c $.8.K ",
"  ^ 8.h } $X+X~.g.p X       # X   X * J c.`.M.9.X   @ @ @   4 a.M.y.$     X 2 W m.y.4   X @ % & % & 0 $ X   % T.[.C O & u ' i   ",
"  u.m./.XX$X_.w.a     $ o   & 2 X X   @ 7.m.b.T     X # $ X i m.m.W       S i.M.m.9.    @   % & % = *       J m._.).4.<.+.Y H   ",
"` / m._.XX~.m.U $     X # X % =   X     T b.m.Q     X       ^ b.m.g X @ $ 7.M.^.s.S X X o X % * o   X   @ J b._.$X2X2X>X+X/.b.u.",
") 2 [ !.R.j.c.i X   X   X X o = o % @   T m._.q.X     X X 4 a.M.~.,.o.7.9.m.`.`.c.5 @ 2 X X o o       X J c.(.$X#X<X>X%X`.^.b.a.",
") 4 * { 2.n.9.4     X         * % % @ . e ~.$X!.&   o % s 9.^.OX%X$X_.M.M.M.M.`.m.J   #     X X X   X W m.!.S.V.B.k M R.!.1.e.a.",
"~ * X 5 [ h.7.<   X   X @   @ % %   o o q Q.,XXXy o > ,.c.^.`.$X$X`.M.m.a.0.i.M.m.W             X 7 9.m.~.D.& , z - O &.6.{ 8.u.",
"D     X 2 +.w.5       X #   . % O   O & | >X5X,XQ.W.Q.+X`.OX%X+X_.M.i.L 4 $ 4 7.M.s.K 7 = o $ H / i.m.!.*., O k N.k   m <.d o.u.",
"D       o b d.P $     X # o o O & O & - -.5X5X,X$X`._._.$X%X$X`.M.a.F       X @ 9.M.v.x.k.w.9.s.m.M._.4..   ; A Z.Z - v %.d q.u.",
"! o       f 5.$.E 4     X   o   o & ; - Z 3X2X%X$Xc.g.o.2.XX$X_.m.W $   @ X X X o._.^._.$X_.m.^.~.~.oXA.+ x N.C.C.V.-.4.Y.j.b.u.",
"~ #   o X p <.5.w.L         X   o 0 t & B.2X$X(.2.a 2 X % 2.$XQ.n = o   X   o   ..$X+X$X(.f.k.U.oXoX XZ k H.P.V z '.@X$X`.^.m.u.",
"_ R #   X 5 o.2.d.Y $     X # = q v l , K.%X`.$.0     < P h.!.v o = * @       o 2.$X$X_.w.w e  .XX>X:XV.;.P.P.Z >.$X$X`._.M.m.u.",
"` y.K     7 [ ,.2.$.E 4 X o 3 y c M x M Q.(.d.i o X X J g._.6.- & : % * X   . 0 F.$X!.o.5 o * p !.$X,X3X-X-X1X;X@X_._.m.!.g.i.u.",
") u.v.K 5 h  .=.4.5.d.E { g c r C Z >.XXT.' % X   X s c._.$XC . - : % $     # 5.$X/.I $     X * d.`.$X2X3X3X2X$X`.n.O.E [ 0 s K ",
"< L x.v.c.k.*.x z F.(.M./.~.R.J..X=X:X#X:.%   3 K / c._.$X>XC O & % o     4 0.M._.j.o     X @ % j.$X2X3X.X X%X_.g.s # o # % X $ ",
"  X 7.m._.+XE.S.J.>X$X`.$X$X2X5X7X7X1XK.t + & +.s.m.(.$X,X].;   % o X   X R m._./.{   o o X   . D.>X>X*XS.Q.`.m.Q @     X o   X ",
"  X g !.$X>X3X:X>X$X~.!.~.XX,X5X7X7X-XZ.Z K.R.(.^.M.`.$X,X>Xj .   X 3 S Q m._._.n.w X * .     % [.$X+X{.}.@X+X~.#.#   @ X % X X ",
"X X = 5.+X>X>X+XY.2.{ ' [ ,.R.>X5X4X-X&X|.#XXX~.g.g.n.`.%X2XW.3.,.j.n.v.M._.T.M.i.2   X   . o v )._.!.R.{.*X>X$X!.p o $ * = # X ",
"    g /.$X#XA...b g 5 2 2 p 5.+X2X<X&X*X@XXXT.#.a i X.m.OX%X`._.m._.(.M.`.+XQ.(.c.5     o q =.W.M.x.q.j.R.#X,X$X`.5.e # o @ # X ",
"X * #._.+X*.u e p * X   X i #._.$X#XP.E.Q.T.q.i X   < 0.M.`.^.m.y.#.,.5.XX>X>X$X_.o.5 e ..Y.OX^.r.J 7 p  .4.XX_.(.n.#.4   X     ",
"D 9.b._.Q.y & # @       # [ T.`.$XK.z C E.W. .%     * d._.n.0.L X   o : c >.*X,X$X!.q.5.+XOX^.v.K     * g b ] #.g.M.c.R X @ 3 4 ",
"` y.b._._.' X @       # ' T.(._.~.D.j O V.{.3.=   5 { !.M.i.S     X 3 e q u &.*X,X$X_.+X,X%X(.h.P < 5 I n c e # a 8.M.m.9.z.q.9.",
"! L o.~.$X2.0 3     p #._.`.l.w.f.j.B ; -.|.'.%.b #.z.oX_.g.5   X % e c : % > S.:X,X$X,X3X;XR.3.+.J I  .} h 3 X   < 7.M.m.^.b.y.",
"@   # ..+XoX!.x.Q w.!.(.(.n.X.2 s 1.k.:.4.'.|.'.Y.!.oX>XXXb % o @ 3 f u %   . %.{.<X,X3X&XH.B.*.} d q r y d i @     L m.OXM.e.9 ",
"  @   % j.$X$X_.m._.$X`.^.X.$   6 i.M.).).Q.}.*X@X).>X,XXX: o # % q p =       ] R.@X3X3X=XI.V.&.B f & + ; q p *     4 i.^.a.8   ",
"@ $ X 0 z.$X+X$X_.+X;X$XOXl.g S e.^.`._.^._.[. X:X;X,X$X(.h   o # = 3     X 5 o.j.Q.>X5X6X4XZ.Z C B z z l y c 3 X   i c.M.y.@   ",
"X     L b._._.(.!.2.N >.$X`.^.s.n.~.g.x.r.l.U.>.'.{.Q.T.h.E o   X 2 <     5 #.z.4.J.3X7X8X7XC.j , > t V M z v y # o g ~._.d.@   ",
"    2 7.M.m.c.w.I 3 & B >X$X_.g.,.h i i 9 E $.2.D.G.%. .d.e.4     @ @   # [ k.Y.A.L.3X7X7X4X|.V O   + j k j , & % 0 ,.+X_.c.5   ",
"8 K 0.M.M.y.7 # X   e 2.XX#XB q 0 5 $     9 X.f.z.3.> O } h.9.T H i w J o.j.Y.S.H.}.,X5X2X:X3XE.z . O ; - - ; & m !.$X_./.M.X.9 ",
"` u.m.m.u.8   X   $ Q h.j.l r % = 5 X     # [ !.Y.m + O l U.M.b.s.n.!.g.z.D.C z -.;X%X>X#X>X>X+XD.-     . O + B `._._._.m.M.m.u.",
"` u.m.g.I X       9 p.g.} . : - q e # X     p 2.:.r & . r F.`.^.M.~.[.T.'.=.l C R.+X_.$XXXW.Q.!.!.T.3.%.B.S.D.!.m.g.q.#.W 7.v.u.",
"` u.c.g X       X W h.o.%   & : : = # X     * { c .     : *.~.m.c.1.<.k.5.%.:.W._._.n.!.,.q & e w.M._._.+X$X`.m.9.2 o     @ O.u.",
"` u.W X       @ J w.R #   % % * % % * o   X 3 #.[ %   % d 1.w.U 3 P b e e ..~.^.^.w.L g .       5 Q g.c./._.^.a.8           K u.",
"` i.<     X 4 O.b.i.1   X @ # % # # 3 # X   % r.i.s X # i P 7     ^ 8.s P b.b.x.0.i X       @ X   X * P v.m.b.7.X   # @ @   6 y.",
"u.T       9 t.u.u.(     @   @ $ @ @ $       H u.u.t.T T T K H     u.u.y.t.u.u.^ 9     $ @   @ < X X   @ ^ u.u.T     X @ @ X 8 u."
};
